<svg xmlns="http://www.w3.org/2000/svg" viewBox="0 0 56.35 56.63"><defs><style>.\36 aa2a19c-f245-4f5c-98ce-c55b19e74ffa{fill:#1d1d1b;}</style></defs><title>Asset 1</title><g id="d418b342-f535-492c-9cb9-f8b87ab7570f" data-name="Layer 2"><g id="ca8720c3-24f6-4cb3-99c6-c4d4ec0cb926" data-name="Layer 1"><path class="6aa2a19c-f245-4f5c-98ce-c55b19e74ffa" d="M53.28,38.51a2.16,2.16,0,0,1-2.1-2.22h0a2.17,2.17,0,0,1,2.23-2.11h0a2.16,2.16,0,0,1,2.09,2.23h0a2.15,2.15,0,0,1-2.16,2.1h-.06Z"/><path class="6aa2a19c-f245-4f5c-98ce-c55b19e74ffa" d="M53.54,29.2a2.27,2.27,0,0,1-2.19-2.33h0a2.27,2.27,0,0,1,2.32-2.19h0A2.27,2.27,0,0,1,55.87,27h0a2.27,2.27,0,0,1-2.26,2.2h-.07Z"/><path class="6aa2a19c-f245-4f5c-98ce-c55b19e74ffa" d="M53.81,19.88a2.35,2.35,0,0,1-2.28-2.42h0a2.33,2.33,0,0,1,2.41-2.28h0a2.33,2.33,0,0,1,2.28,2.41h0a2.35,2.35,0,0,1-2.34,2.29h-.07Z"/><path class="6aa2a19c-f245-4f5c-98ce-c55b19e74ffa" d="M38.93,52.1A2,2,0,0,1,37,50h0A2,2,0,0,1,39,48h0a2,2,0,0,1,2,2.09h0a2,2,0,0,1-2,2h-.06Z"/><path class="6aa2a19c-f245-4f5c-98ce-c55b19e74ffa" d="M48.58,43a2.12,2.12,0,0,1-2.06-2.17h0A2.14,2.14,0,0,1,48.7,38.8h0A2.13,2.13,0,0,1,50.76,41h0a2.12,2.12,0,0,1-2.12,2.06h-.06Zm-9.39-.26a2.12,2.12,0,0,1-2.06-2.18h0a2.12,2.12,0,0,1,2.18-2.06h0a2.12,2.12,0,0,1,2.06,2.18h0a2.12,2.12,0,0,1-2.12,2.06h-.06Z"/><path class="6aa2a19c-f245-4f5c-98ce-c55b19e74ffa" d="M48.84,33.72a2.2,2.2,0,0,1-2.14-2.27h0A2.2,2.2,0,0,1,49,29.31h0a2.21,2.21,0,0,1,2.15,2.27h0a2.22,2.22,0,0,1-2.21,2.14h-.07Zm-9.39-.26a2.23,2.23,0,0,1-2.15-2.28h0A2.21,2.21,0,0,1,39.58,29h0a2.21,2.21,0,0,1,2.15,2.27h0a2.22,2.22,0,0,1-2.21,2.15h-.07Z"/><path class="6aa2a19c-f245-4f5c-98ce-c55b19e74ffa" d="M49.11,24.41A2.32,2.32,0,0,1,46.87,22h0a2.3,2.3,0,0,1,2.37-2.24h0a2.3,2.3,0,0,1,2.24,2.37h0a2.31,2.31,0,0,1-2.3,2.24h-.07Zm-9.39-.27a2.32,2.32,0,0,1-2.24-2.37h0a2.3,2.3,0,0,1,2.37-2.24h0a2.3,2.3,0,0,1,2.23,2.37h0a2.29,2.29,0,0,1-2.3,2.24h-.06Z"/><path class="6aa2a19c-f245-4f5c-98ce-c55b19e74ffa" d="M49.37,15.09a2.4,2.4,0,0,1-2.32-2.47h0a2.39,2.39,0,0,1,2.46-2.32h0a2.41,2.41,0,0,1,2.33,2.46h0a2.4,2.4,0,0,1-2.4,2.33h-.07ZM40,14.82a2.39,2.39,0,0,1-2.32-2.46h0A2.39,2.39,0,0,1,40.12,10h0a2.41,2.41,0,0,1,2.33,2.46h0a2.41,2.41,0,0,1-2.4,2.33H40Z"/><path class="6aa2a19c-f245-4f5c-98ce-c55b19e74ffa" d="M40.25,5.5a2.49,2.49,0,0,1-2.42-2.56h0A2.5,2.5,0,0,1,40.39.52h0A2.49,2.49,0,0,1,42.8,3.09h0A2.48,2.48,0,0,1,40.32,5.5h-.07Z"/><path class="6aa2a19c-f245-4f5c-98ce-c55b19e74ffa" d="M34.09,56.62a2,2,0,0,1-1.92-2h0a2,2,0,0,1,2-1.92h0a2,2,0,0,1,1.92,2h0a2,2,0,0,1-2,1.93h-.06Z"/><path class="6aa2a19c-f245-4f5c-98ce-c55b19e74ffa" d="M43.75,47.57a2.08,2.08,0,0,1-2-2.13h0a2.06,2.06,0,0,1,2.13-2h0a2.07,2.07,0,0,1,2,2.12h0a2.09,2.09,0,0,1-2.08,2h-.06Zm4.79,4.36a1.76,1.76,0,0,1-1.7-1.79h0a1.74,1.74,0,0,1,1.8-1.69h0a1.73,1.73,0,0,1,1.69,1.78h0a1.75,1.75,0,0,1-1.74,1.7h-.05ZM34.36,47.3a2.07,2.07,0,0,1-2-2.12h0a2.07,2.07,0,0,1,2.13-2h0a2.08,2.08,0,0,1,2,2.13h0a2.08,2.08,0,0,1-2.08,2h-.06Z"/><path class="6aa2a19c-f245-4f5c-98ce-c55b19e74ffa" d="M53.41,38.52a2.17,2.17,0,0,1-2.11-2.23h0a2.17,2.17,0,0,1,2.23-2.1h0a2.15,2.15,0,0,1,2.1,2.23h0a2.16,2.16,0,0,1-2.16,2.1h-.06ZM44,38.25A2.17,2.17,0,0,1,41.91,36h0a2.17,2.17,0,0,1,2.23-2.11h0a2.16,2.16,0,0,1,2.1,2.23h0a2.16,2.16,0,0,1-2.16,2.1H44ZM34.62,38a2.16,2.16,0,0,1-2.1-2.22h0a2.18,2.18,0,0,1,2.23-2.11h0a2.17,2.17,0,0,1,2.1,2.23h0A2.15,2.15,0,0,1,34.69,38h-.07Z"/><path class="6aa2a19c-f245-4f5c-98ce-c55b19e74ffa" d="M53.67,29.2a2.26,2.26,0,0,1-2.19-2.32h0a2.26,2.26,0,0,1,2.32-2.2h0A2.27,2.27,0,0,1,56,27h0a2.26,2.26,0,0,1-2.26,2.2h-.07Zm-9.39-.26a2.29,2.29,0,0,1-2.2-2.33h0a2.26,2.26,0,0,1,2.33-2.19h0a2.26,2.26,0,0,1,2.19,2.32h0a2.26,2.26,0,0,1-2.25,2.2h-.07Zm-9.39-.27a2.27,2.27,0,0,1-2.19-2.33h0A2.26,2.26,0,0,1,35,24.15h0a2.28,2.28,0,0,1,2.2,2.32h0A2.27,2.27,0,0,1,35,28.67h-.07Z"/><path class="6aa2a19c-f245-4f5c-98ce-c55b19e74ffa" d="M53.94,19.88a2.34,2.34,0,0,1-2.28-2.42h0a2.35,2.35,0,0,1,2.41-2.28h0a2.35,2.35,0,0,1,2.28,2.42h0A2.34,2.34,0,0,1,54,19.88h-.07Zm-9.39-.27a2.34,2.34,0,0,1-2.28-2.41h0a2.35,2.35,0,0,1,2.41-2.29h0A2.35,2.35,0,0,1,47,17.33h0a2.35,2.35,0,0,1-2.35,2.29h-.06Zm-9.4-.26a2.34,2.34,0,0,1-2.27-2.42h0a2.33,2.33,0,0,1,2.41-2.28h0a2.34,2.34,0,0,1,2.28,2.41h0a2.35,2.35,0,0,1-2.35,2.29h-.07Z"/><path class="6aa2a19c-f245-4f5c-98ce-c55b19e74ffa" d="M44.81,10.29a2.43,2.43,0,0,1-2.37-2.51h0A2.44,2.44,0,0,1,45,5.41h0a2.45,2.45,0,0,1,2.37,2.51h0a2.44,2.44,0,0,1-2.44,2.37h-.07ZM35.42,10a2.44,2.44,0,0,1-2.37-2.51h0a2.44,2.44,0,0,1,2.51-2.37h0a2.44,2.44,0,0,1,2.37,2.51h0A2.44,2.44,0,0,1,35.49,10h-.07Z"/><path class="6aa2a19c-f245-4f5c-98ce-c55b19e74ffa" d="M29.79,51.84a2,2,0,0,1-2-2.08h0a2,2,0,0,1,2.09-2h0a2,2,0,0,1,2,2.09h0a2,2,0,0,1-2,2h-.06Zm-9.39-.27a2,2,0,0,1-2-2.08h0a2,2,0,0,1,2.09-2h0a2,2,0,0,1,2,2.09h0a2,2,0,0,1-2,2H20.4ZM11,51.3a2,2,0,0,1-2-2.08H9a2,2,0,0,1,2.09-2h0a2,2,0,0,1,2,2.08h0a2,2,0,0,1-2,2H11Z"/><path class="6aa2a19c-f245-4f5c-98ce-c55b19e74ffa" d="M30.05,42.52A2.11,2.11,0,0,1,28,40.34h0a2.12,2.12,0,0,1,2.18-2.06h0a2.13,2.13,0,0,1,2.06,2.18h0a2.13,2.13,0,0,1-2.12,2.06h-.07Zm-9.39-.27a2.11,2.11,0,0,1-2.05-2.18h0A2.13,2.13,0,0,1,20.79,38h0a2.13,2.13,0,0,1,2.06,2.18h0a2.13,2.13,0,0,1-2.12,2.06h-.07ZM11.27,42a2.12,2.12,0,0,1-2.06-2.17h0a2.13,2.13,0,0,1,2.18-2.06h0a2.13,2.13,0,0,1,2.07,2.18h0a2.12,2.12,0,0,1-2.12,2h-.07Z"/><path class="6aa2a19c-f245-4f5c-98ce-c55b19e74ffa" d="M30.32,33.2a2.21,2.21,0,0,1-2.15-2.28h0a2.21,2.21,0,0,1,2.27-2.14h0a2.21,2.21,0,0,1,2.15,2.27h0a2.2,2.2,0,0,1-2.2,2.15h-.07Zm-9.39-.27a2.21,2.21,0,0,1-2.15-2.27h0a2.22,2.22,0,0,1,2.27-2.15h0a2.21,2.21,0,0,1,2.15,2.28h0A2.2,2.2,0,0,1,21,32.93h-.07Zm-9.39-.26a2.22,2.22,0,0,1-2.15-2.28h0a2.2,2.2,0,0,1,2.27-2.14h0a2.2,2.2,0,0,1,2.15,2.27h0a2.22,2.22,0,0,1-2.21,2.15h-.06ZM2.15,32.4A2.2,2.2,0,0,1,0,30.13H0A2.21,2.21,0,0,1,2.27,28h0a2.21,2.21,0,0,1,2.15,2.27h0A2.22,2.22,0,0,1,2.21,32.4H2.15Z"/><path class="6aa2a19c-f245-4f5c-98ce-c55b19e74ffa" d="M30.58,23.88a2.3,2.3,0,0,1-2.23-2.37h0a2.29,2.29,0,0,1,2.36-2.23h0A2.3,2.3,0,0,1,33,21.64h0a2.31,2.31,0,0,1-2.31,2.24h-.07Zm-9.39-.26A2.3,2.3,0,0,1,19,21.24h0A2.29,2.29,0,0,1,21.32,19h0a2.29,2.29,0,0,1,2.24,2.36h0a2.3,2.3,0,0,1-2.3,2.25h-.07Zm-9.39-.27A2.3,2.3,0,0,1,9.57,21h0a2.29,2.29,0,0,1,2.36-2.24h0a2.29,2.29,0,0,1,2.24,2.36h0a2.3,2.3,0,0,1-2.3,2.25H11.8Zm-9.39-.27A2.32,2.32,0,0,1,.17,20.71h0a2.31,2.31,0,0,1,2.37-2.24h0a2.31,2.31,0,0,1,2.24,2.37h0a2.3,2.3,0,0,1-2.3,2.24H2.41Z"/><path class="6aa2a19c-f245-4f5c-98ce-c55b19e74ffa" d="M30.85,14.56a2.4,2.4,0,0,1-2.33-2.46h0A2.4,2.4,0,0,1,31,9.77h0a2.39,2.39,0,0,1,2.32,2.46h0a2.39,2.39,0,0,1-2.39,2.33h-.07Zm-9.39-.27a2.39,2.39,0,0,1-2.33-2.46h0A2.4,2.4,0,0,1,21.59,9.5h0A2.4,2.4,0,0,1,23.92,12h0a2.4,2.4,0,0,1-2.39,2.33h-.07ZM12.07,14a2.4,2.4,0,0,1-2.33-2.47h0A2.39,2.39,0,0,1,12.2,9.24h0a2.39,2.39,0,0,1,2.33,2.46h0A2.4,2.4,0,0,1,12.13,14h-.06Z"/><path class="6aa2a19c-f245-4f5c-98ce-c55b19e74ffa" d="M31.11,5.24A2.48,2.48,0,0,1,28.7,2.69h0A2.5,2.5,0,0,1,31.26.26h0a2.5,2.5,0,0,1,2.41,2.56h0a2.49,2.49,0,0,1-2.49,2.42h-.07ZM21.72,5A2.49,2.49,0,0,1,19.3,2.42h0A2.51,2.51,0,0,1,21.87,0h0a2.48,2.48,0,0,1,2.41,2.56h0A2.48,2.48,0,0,1,21.79,5h-.07Z"/><path class="6aa2a19c-f245-4f5c-98ce-c55b19e74ffa" d="M25,56.37a2,2,0,0,1-1.94-2h0a2,2,0,0,1,2-1.93h0a2,2,0,0,1,1.93,2h0a2,2,0,0,1-2,1.93H25Z"/><path class="6aa2a19c-f245-4f5c-98ce-c55b19e74ffa" d="M25.23,47a2.07,2.07,0,0,1-2-2.12h0a2.08,2.08,0,0,1,2.13-2h0a2.07,2.07,0,0,1,2,2.13h0a2.08,2.08,0,0,1-2.08,2h-.05Zm-9.39-.26a2.08,2.08,0,0,1-2-2.13h0a2.08,2.08,0,0,1,2.13-2h0a2.08,2.08,0,0,1,2,2.13h0a2.09,2.09,0,0,1-2.08,2h-.05Zm-9.39-.27a2.08,2.08,0,0,1-2-2.13h0a2.06,2.06,0,0,1,2.13-2h0a2.07,2.07,0,0,1,2,2.12h0a2.09,2.09,0,0,1-2.08,2h0Z"/><path class="6aa2a19c-f245-4f5c-98ce-c55b19e74ffa" d="M25.5,37.72a2.16,2.16,0,0,1-2.11-2.22h0a2.16,2.16,0,0,1,2.23-2.1h0a2.17,2.17,0,0,1,2.1,2.23h0a2.17,2.17,0,0,1-2.17,2.09H25.5Zm-9.4-.27A2.15,2.15,0,0,1,14,35.23h0a2.16,2.16,0,0,1,2.22-2.1h0a2.18,2.18,0,0,1,2.11,2.23h0a2.17,2.17,0,0,1-2.17,2.1H16.1Zm-9.39-.26A2.16,2.16,0,0,1,4.61,35h0a2.16,2.16,0,0,1,2.22-2.11h0a2.16,2.16,0,0,1,2.1,2.23h0a2.15,2.15,0,0,1-2.16,2.1H6.71Z"/><path class="6aa2a19c-f245-4f5c-98ce-c55b19e74ffa" d="M25.76,28.41a2.27,2.27,0,0,1-2.2-2.33h0a2.27,2.27,0,0,1,2.33-2.19h0a2.27,2.27,0,0,1,2.19,2.32h0a2.26,2.26,0,0,1-2.26,2.2h-.06Zm-9.39-.27a2.26,2.26,0,0,1-2.2-2.32h0a2.27,2.27,0,0,1,2.33-2.2h0A2.27,2.27,0,0,1,18.69,26h0a2.26,2.26,0,0,1-2.26,2.19h-.06ZM7,27.88a2.27,2.27,0,0,1-2.19-2.33h0a2.27,2.27,0,0,1,2.33-2.19h0A2.27,2.27,0,0,1,9.3,25.68h0A2.27,2.27,0,0,1,7,27.88H7Z"/><path class="6aa2a19c-f245-4f5c-98ce-c55b19e74ffa" d="M26,19.09a2.35,2.35,0,0,1-2.28-2.42h0a2.35,2.35,0,0,1,2.42-2.28h0a2.34,2.34,0,0,1,2.27,2.41h0a2.35,2.35,0,0,1-2.34,2.29H26Zm-9.39-.27a2.35,2.35,0,0,1-2.28-2.42h0a2.35,2.35,0,0,1,2.41-2.28h0A2.35,2.35,0,0,1,19,16.54h0a2.34,2.34,0,0,1-2.34,2.28h-.07Zm-9.39-.27A2.35,2.35,0,0,1,5,16.13H5a2.35,2.35,0,0,1,2.41-2.28h0a2.35,2.35,0,0,1,2.28,2.42h0a2.33,2.33,0,0,1-2.34,2.28H7.24Z"/><path class="6aa2a19c-f245-4f5c-98ce-c55b19e74ffa" d="M26.29,9.77a2.45,2.45,0,0,1-2.38-2.51h0a2.45,2.45,0,0,1,2.51-2.38h0A2.46,2.46,0,0,1,28.8,7.4h0a2.45,2.45,0,0,1-2.44,2.37h-.07ZM16.9,9.5A2.45,2.45,0,0,1,14.52,7h0A2.44,2.44,0,0,1,17,4.62h0a2.45,2.45,0,0,1,2.38,2.51h0A2.44,2.44,0,0,1,17,9.5H16.9ZM7.5,9.23A2.44,2.44,0,0,1,5.13,6.72h0A2.43,2.43,0,0,1,7.64,4.36h0A2.44,2.44,0,0,1,10,6.86h0A2.44,2.44,0,0,1,7.58,9.23H7.5Z"/><path class="6aa2a19c-f245-4f5c-98ce-c55b19e74ffa" d="M11.14,51.31a2,2,0,0,1-2-2.08h0a2,2,0,0,1,2.08-2h0a2,2,0,0,1,2,2.08h0a2,2,0,0,1-2,2h-.06Z"/><path class="6aa2a19c-f245-4f5c-98ce-c55b19e74ffa" d="M11.4,42a2.13,2.13,0,0,1-2.06-2.18h0a2.13,2.13,0,0,1,2.19-2.06h0a2.11,2.11,0,0,1,2.05,2.18h0A2.12,2.12,0,0,1,11.46,42H11.4Z"/><path class="6aa2a19c-f245-4f5c-98ce-c55b19e74ffa" d="M11.66,32.67a2.21,2.21,0,0,1-2.14-2.28h0a2.2,2.2,0,0,1,2.27-2.14h0a2.21,2.21,0,0,1,2.15,2.27h0a2.21,2.21,0,0,1-2.21,2.15h-.07ZM2.27,32.4A2.22,2.22,0,0,1,.12,30.13h0A2.23,2.23,0,0,1,2.4,28h0a2.21,2.21,0,0,1,2.15,2.28h0A2.21,2.21,0,0,1,2.34,32.4H2.27Z"/><path class="6aa2a19c-f245-4f5c-98ce-c55b19e74ffa" d="M11.93,23.35A2.3,2.3,0,0,1,9.7,21h0a2.29,2.29,0,0,1,2.36-2.23h0a2.3,2.3,0,0,1,2.24,2.36h0A2.31,2.31,0,0,1,12,23.35h-.07Zm-9.39-.26A2.32,2.32,0,0,1,.3,20.71h0a2.3,2.3,0,0,1,2.37-2.23h0a2.3,2.3,0,0,1,2.24,2.36h0a2.31,2.31,0,0,1-2.3,2.25H2.54Z"/><path class="6aa2a19c-f245-4f5c-98ce-c55b19e74ffa" d="M6.58,46.51a2.07,2.07,0,0,1-2-2.12h0a2.08,2.08,0,0,1,2.13-2h0a2.08,2.08,0,0,1,2,2.13h0a2.09,2.09,0,0,1-2.08,2h0Z"/><path class="6aa2a19c-f245-4f5c-98ce-c55b19e74ffa" d="M6.84,37.19A2.17,2.17,0,0,1,4.73,35h0A2.17,2.17,0,0,1,7,32.87H7a2.15,2.15,0,0,1,2.1,2.22h0a2.16,2.16,0,0,1-2.16,2.1H6.84Z"/><path class="6aa2a19c-f245-4f5c-98ce-c55b19e74ffa" d="M7.11,27.88a2.27,2.27,0,0,1-2.2-2.33h0a2.26,2.26,0,0,1,2.32-2.19h0a2.27,2.27,0,0,1,2.2,2.32h0a2.27,2.27,0,0,1-2.26,2.2H7.11Z"/><path class="6aa2a19c-f245-4f5c-98ce-c55b19e74ffa" d="M7.37,18.56a2.35,2.35,0,0,1-2.28-2.42h0A2.34,2.34,0,0,1,7.5,13.86h0a2.35,2.35,0,0,1,2.28,2.41h0a2.35,2.35,0,0,1-2.34,2.29H7.37Z"/></g></g></svg>