<?xml version="1.0" encoding="UTF-8" standalone="no"?>
<!-- Created with Inkscape (http://www.inkscape.org/) -->
<svg width="200mm" height="70mm" viewBox="0 0 200 70" version="1.1" id="svg1" inkscape:version="1.3 (0e150ed, 2023-07-21)" sodipodi:docname="full_project_logo.svg" xmlns:inkscape="http://www.inkscape.org/namespaces/inkscape" xmlns:sodipodi="http://sodipodi.sourceforge.net/DTD/sodipodi-0.dtd" xmlns:xlink="http://www.w3.org/1999/xlink" xmlns="http://www.w3.org/2000/svg" xmlns:svg="http://www.w3.org/2000/svg">
  <sodipodi:namedview id="namedview1" pagecolor="#ffffff" bordercolor="#000000" borderopacity="0.25" inkscape:showpageshadow="2" inkscape:pageopacity="0.0" inkscape:pagecheckerboard="0" inkscape:deskcolor="#d1d1d1" inkscape:document-units="mm" inkscape:zoom="1.08" inkscape:cx="497.68518" inkscape:cy="97.685185" inkscape:window-width="1920" inkscape:window-height="1080" inkscape:window-x="0" inkscape:window-y="0" inkscape:window-maximized="0" inkscape:current-layer="g10"/>
  <defs id="defs1">
    <linearGradient inkscape:collect="always" xlink:href="#linearGradient85" id="linearGradient81" x1="-187.97173" y1="250.67909" x2="-123.91178" y2="169.16954" gradientUnits="userSpaceOnUse"/>
    <linearGradient id="linearGradient85" inkscape:collect="always" inkscape:label="gold">
      <stop style="stop-color:#f5be39;stop-opacity:1;" offset="0" id="stop85"/>
      <stop style="stop-color:#ffd699;stop-opacity:1;" offset="0.16734976" id="stop84"/>
      <stop style="stop-color:#9a5f00;stop-opacity:1;" offset="0.51065764" id="stop83"/>
      <stop style="stop-color:#cfa344;stop-opacity:1;" offset="0.88020031" id="stop82"/>
      <stop style="stop-color:#ffd587;stop-opacity:1;" offset="1" id="stop81"/>
    </linearGradient>
    <clipPath clipPathUnits="userSpaceOnUse" id="clipPath2">
      <rect style="fill:#000000;stroke-width:0.264583;stroke-opacity:0" id="rect3" width="120.29126" height="161.06796" x="59.805824" y="343.20389"/>
    </clipPath>
    <clipPath clipPathUnits="userSpaceOnUse" id="clipPath17">
      <rect style="fill:#ffffff;stroke-width:0.235396;stroke-opacity:0" id="rect18" width="41.752811" height="40.162228" x="33.214592" y="159.868"/>
    </clipPath>
    <linearGradient inkscape:collect="always" xlink:href="#linearGradient85" id="linearGradient1" gradientUnits="userSpaceOnUse" x1="-187.97173" y1="250.67909" x2="-123.91178" y2="169.16954"/>
    <linearGradient inkscape:collect="always" xlink:href="#linearGradient85" id="linearGradient2" gradientUnits="userSpaceOnUse" x1="-187.97173" y1="250.67909" x2="-123.91178" y2="169.16954"/>
    <linearGradient inkscape:collect="always" xlink:href="#linearGradient85" id="linearGradient3" gradientUnits="userSpaceOnUse" x1="-187.97173" y1="250.67909" x2="-123.91178" y2="169.16954"/>
    <linearGradient inkscape:collect="always" xlink:href="#linearGradient85" id="linearGradient4" gradientUnits="userSpaceOnUse" x1="-187.97173" y1="250.67909" x2="-123.91178" y2="169.16954"/>
    <linearGradient inkscape:collect="always" xlink:href="#linearGradient85" id="linearGradient5" gradientUnits="userSpaceOnUse" x1="-187.97173" y1="250.67909" x2="-123.91178" y2="169.16954"/>
    <linearGradient inkscape:collect="always" xlink:href="#linearGradient85" id="linearGradient6" gradientUnits="userSpaceOnUse" x1="-187.97173" y1="250.67909" x2="-123.91178" y2="169.16954"/>
    <linearGradient inkscape:collect="always" xlink:href="#linearGradient85" id="linearGradient7" gradientUnits="userSpaceOnUse" x1="-187.97173" y1="250.67909" x2="-123.91178" y2="169.16954"/>
    <linearGradient inkscape:collect="always" xlink:href="#linearGradient85" id="linearGradient8" gradientUnits="userSpaceOnUse" x1="-187.97173" y1="250.67909" x2="-123.91178" y2="169.16954"/>
    <linearGradient inkscape:collect="always" xlink:href="#linearGradient85" id="linearGradient9" gradientUnits="userSpaceOnUse" x1="-187.97173" y1="250.67909" x2="-123.91178" y2="169.16954"/>
  </defs>
  <g id="g9" transform="matrix(0.73767543,0,0,0.73767543,-9.2883721,-82.825466)" inkscape:label="All Elements">
    <g inkscape:label="Layer 1" inkscape:groupmode="layer" id="layer1">
      <g inkscape:groupmode="layer" id="layer2" inkscape:label="Logo Layer" transform="matrix(0.4702551,0,0,0.4702551,12.924402,112.69984)">
        <circle style="fill:#000000;fill-opacity:1;stroke:#ffd587;stroke-width:2.5;stroke-dasharray:none;stroke-opacity:1" id="path19" cx="100" cy="100" r="96.575401" inkscape:label="meatball"/>
        <g id="g16" transform="matrix(1.096991,0,0,1.096991,231.74764,-169.21346)" style="fill:url(#linearGradient81)" inkscape:label="Main Head">
          <path id="rect1" style="fill:url(#linearGradient1);stroke-width:0.264583;stroke-opacity:0" d="M 43.007368,317.24627 38.971126,509.11495 H 197.66067 l 4.03624,-191.86868 z m 14.520614,7.00326 H 184.57604 L 180.7479,510.3854 H 53.699838 Z m 96.322708,22.22622 c -0.34507,3.67052 4.5764,6.10052 7.42849,6.91586 -0.45425,-1.90887 0.11788,-2.4477 1.28054,-3.84215 z m -27.5084,1.52911 c -7.80247,-0.10726 -15.76089,0.93227 -22.95209,2.73006 -3.850833,0.96272 -9.176013,1.86613 -12.294853,4.44986 11.908933,-3.1844 27.480953,-2.01147 38.677743,3.2737 4.63753,2.18904 8.81029,4.77979 12.80749,7.99693 1.3608,1.09525 3.38149,4.10429 5.12268,4.35529 1.04773,0.15104 2.32496,-0.98594 3.33003,-1.28158 -4.70571,-8.14071 -16.18119,-13.36062 -24.84603,-15.84502 -2.65123,-0.76017 -5.41942,-1.77202 -8.19692,-1.82935 v -0.2558 c 10.45291,0 20.00901,1.08833 28.94449,7.04763 2.41583,1.61118 4.60819,3.45218 6.65954,5.50354 1.20109,1.20107 2.30023,2.85137 3.84266,3.58583 1.32133,-7.11744 -4.26282,-11.51464 -10.24588,-14.34434 v -0.2558 l 6.65954,1.28054 c -0.77921,-1.23099 -2.27537,-1.59154 -3.58583,-2.09755 -3.32662,-1.28449 -6.77787,-2.02612 -10.24589,-2.79879 -4.3699,-0.97361 -8.9952,-1.4508 -13.67668,-1.51515 z m 36.32388,6.83059 c -1.36204,-0.0637 -2.71681,-0.0148 -3.9486,0.34933 1.42924,4.96067 5.89392,0.32981 8.23671,3.15536 0.91584,1.10457 1.16256,3.17603 1.56838,4.52893 1.06969,3.56608 1.98559,7.17725 3.00188,10.75851 3.66817,-1.71662 0.83815,-7.06041 0.0961,-9.99009 -0.53737,-2.1216 -0.90212,-6.40872 -2.38538,-8.04188 -0.58526,-0.64441 -1.80294,-0.38051 -2.5771,-0.43357 -1.26056,-0.0864 -2.62997,-0.2629 -3.99201,-0.32659 z m -59.0181,3.0365 c -2.98054,-0.0672 -5.976083,0.0537 -8.966903,0.34314 -4.56506,0.44176 -11.07514,1.02672 -14.85645,3.88555 13.68166,-2.65329 28.950673,-2.35395 42.007773,2.86907 3.92143,1.56865 7.55812,3.59272 11.01431,6.02444 1.40144,0.98603 3.19818,3.34716 4.86689,3.70468 1.16315,0.24921 2.65404,-1.0136 3.58583,-1.58388 -2.72945,-3.87473 -7.61194,-6.91218 -11.78275,-9.02735 -8.12246,-4.1192 -16.92708,-6.01409 -25.8687,-6.21565 z m 6.9143,7.81503 -3.02772,0.43408 -3.53053,5.45703 -7.612463,13.57592 -22.01881,39.70249 -10.42933,19.21071 h 16.90594 33.810863 10.24588 l 4.0411,0.26355 1.85053,3.5786 h -25.61497 c 4.60541,6.40299 13.49248,4.35477 20.49177,4.35477 1.70348,0 5.115,-0.65116 6.58978,0.26303 1.20926,0.74963 1.67547,3.14352 2.37556,4.34754 h -19.97965 c 0.91396,1.29749 2.61628,3.6041 4.12119,4.19974 2.79794,1.10743 7.72383,0.15452 10.73526,0.15452 1.60173,0 5.00328,-0.63852 6.30401,0.41083 1.78168,1.43735 2.32726,5.22505 3.17655,7.27345 2.64087,6.36951 4.98543,12.87059 7.68119,19.21123 1.50715,3.54495 1.7048,8.1964 6.14742,8.1964 l -16.12408,-40.47091 -4.69532,-11.78275 -2.14043,-4.34702 -4.44728,-0.26355 H 114.1482 70.603567 l 28.04119,-50.97312 8.274943,-15.36857 z m 39.95829,12.29486 v 3.84214 h 19.97966 v -3.84214 z m 16.04605,7.21248 c -1.35817,0.0377 -2.76858,0.21549 -3.49488,0.21549 -2.78384,0 -6.26033,-0.56168 -8.96483,0.10749 -1.3087,0.3238 -2.47619,1.38519 -3.58634,2.10994 -2.33877,1.52684 -5.2768,2.88708 -7.17166,4.95474 4.88224,-2.00247 10.75921,-5.10033 16.137,-4.85655 3.42207,0.15513 7.01578,1.75654 10.24589,2.80758 l -2.1084,6.14743 2.25568,5.12269 4.46329,8.96534 c -1.54528,0 -5.33197,0.68784 -6.51536,-0.41083 -1.94685,-1.80748 -1.37248,-4.81165 -4.24264,-6.24923 -2.01282,-1.00816 -4.51664,-0.62142 -6.66006,-1.21543 -2.58925,-0.71757 -4.82367,-2.28189 -7.42797,-2.94401 -3.49298,-0.88807 -7.03857,-0.35439 -10.5022,0.3173 3.60291,4.35937 10.94526,5.7862 15.62489,8.82168 6.28295,4.07551 7.73718,10.35529 7.68428,17.30541 l 9.22114,-3.33003 1.04129,2.04949 -1.35186,2.25464 -2.76314,0.12712 -5.6348,1.46038 v 0.2558 l 9.22115,2.04948 -0.10439,-3.6592 1.92185,-3.25665 -0.90465,-3.71902 c -1.03981,0.77488 -1.61034,-0.1377 -1.68124,1.15742 -5.34211,0.57767 -5.03349,-4.06118 -4.86689,-7.9406 h 13.3196 c -2.48488,-5.93694 -7.3302,-11.48154 -9.05784,-17.67387 -0.51654,-1.8514 0.7167,-3.3639 0.90743,-5.1232 0.1296,-1.19551 -1.00287,-4.33526 -1.82262,-5.22448 -0.51759,-0.56145 -1.82355,-0.66401 -3.18172,-0.62632 z m -48.31902,1.75183 c -3.85867,0.26343 -7.49404,3.49954 -7.68532,7.68532 2.89038,-0.002 2.83116,-1.86999 4.86741,-3.51503 2.09194,-1.69004 5.01774,-1.33376 6.90397,0.46819 0.60847,0.58128 1.10823,1.25553 1.45779,2.02209 0.44909,0.98479 0.58035,2.00465 0.60255,3.07372 2.36038,-1.87106 0.99908,-6.33854 -1.04852,-8.06101 -1.5435,-1.29842 -3.34393,-1.79302 -5.09788,-1.67328 z m 41.45535,6.51381 c -2.57191,0.002 -5.60701,1.76036 -7.13289,3.22048 l 9.47745,-2.5616 c -0.68132,-0.46546 -1.48725,-0.65964 -2.34456,-0.65888 z m 1.83193,3.98891 -4.61057,1.53685 4.61057,1.53686 z m -47.64308,2.8174 -2.30529,0.51263 c 1.78624,4.14003 5.43126,8.93886 8.71265,12.01477 1.72452,1.61652 4.31139,2.23531 6.0725,0.25218 2.28122,-2.56884 1.09605,-9.2989 1.09605,-12.52327 l -4.35425,1.79318 v 0.51211 c 1.9458,1.49594 3.4445,6.60217 -0.76843,5.78673 -3.45186,-0.66812 -6.74626,-5.56934 -8.45323,-8.34833 z m 57.88897,31.50609 c -1.70887,0.88659 -2.78345,2.38231 -3.58583,4.09846 l -2.30528,-1.53686 c -0.16986,2.15228 -0.85121,6.43786 1.81952,7.52977 0.94501,0.38636 2.29776,0.15451 3.30316,0.15451 -1.74377,-4.43279 -1.07648,-6.09932 0.76843,-10.24588 z m -1.02474,13.3196 c -3.80049,0.003 -4.4133,2.25605 -4.22331,5.17751 l 1.66222,25.56015 h 2.56109 z m -20.74757,0.76843 c -4.59016,2.14055 -7.14876,9.58971 -7.17166,14.34434 -0.006,1.22883 -0.22317,2.70068 0.2558,3.84214 1.42039,-5.99387 4.05179,-12.74198 6.91586,-18.18648 z" clip-path="url(#clipPath2)" transform="matrix(0.99807119,0,0,0.99807119,-245.58594,-172.24146)" sodipodi:nodetypes="ccccccccccccccsscssscsccssccccsssscsscssssssccssscssccccccccccccssccssssscccccccccccccccsssscsccccsssscsccccccccccccccssssscssscssccccccccccsscccsccccscccsccccccc"/>
          <path style="fill:url(#linearGradient2);fill-opacity:1" d="m 67.505362,193.82714 c -1.124324,-0.73673 -2.145789,-1.587 -1.9179,-1.40163 0.625115,0.50849 -1.114223,-0.49598 -2.257897,-1.1605 -2.079409,-1.20822 -2.079409,-1.20822 -1.292693,-1.53901 1.774693,-0.7462 4.061056,-3.5506 5.320259,-6.5257 0.268322,-0.63396 0.514194,-1.19204 0.546383,-1.24017 0.03219,-0.0481 0.268885,0.0348 0.525992,0.18432 0.257106,0.14951 0.372784,0.27534 0.257061,0.27963 -0.115723,0.004 0.146934,0.10135 0.194463,0.41265 0.04779,0.313 0.172115,0.6202 0.366566,0.91802 0.07264,0.11125 0.560639,0.77751 0.969956,1.62279 0.665702,1.37474 0.727974,1.71251 0.590283,3.20182 -0.0924,0.99946 -0.02752,2.17524 0.162334,2.94163 0.173945,0.70217 0.250703,1.38276 0.170574,1.51241 -0.08013,0.12965 -0.0184,0.15706 0.137182,0.0609 0.350243,-0.21646 0.911372,0.76658 0.66506,1.16512 -0.110042,0.17805 -0.06507,0.21971 0.116228,0.10766 0.162647,-0.10052 0.295722,-0.0607 0.295722,0.0885 0,0.16478 -0.678729,0.26869 -1.728982,0.26471 -1.527611,-0.006 -1.901202,-0.0941 -3.120591,-0.89315 z M 49.17377,188.95423 c -5.32341,-1.84835 -5.59811,-1.9542 -7.32477,-2.82217 -2.134822,-1.07317 -3.555502,-2.43161 -4.4974,-3.74316 -0.79691,-1.10969 -0.79691,-1.10969 0.69755,-1.10969 1.38921,0 1.56586,-0.0697 2.50841,-0.9901 0.65909,-0.64358 1.11165,-1.37805 1.29307,-2.09856 0.16468,-0.654 0.27911,-3.75515 0.27911,-7.56413 0,-6.45569 0,-6.45569 0.58208,-5.84196 0.32014,0.33755 1.213305,0.96393 1.79602,1.59388 0.523325,0.56574 0.82036,0.88944 1.06383,1.22304 0.275021,0.37683 0.622609,0.58865 0.93228,0.92769 0.920414,0.90367 0.971724,0.93349 1.42724,1.52674 0.408609,0.53216 0.9382,1.20738 1.19234,1.48876 0.546888,0.6055 3.083558,5.75788 3.468519,7.04511 0.479448,1.60319 0.621215,2.64492 0.732021,5.37906 0.147925,3.65005 -0.08662,5.80915 -0.646009,5.94679 -0.236814,0.0583 -1.813757,-0.37432 -3.504321,-0.9613 z m -16.75731,-25.6266 c 0.0123,-0.29839 0.073,-0.35909 0.15476,-0.15475 0.074,0.1849 0.0649,0.40583 -0.0202,0.49094 -0.0851,0.0851 -0.14566,-0.0662 -0.13454,-0.33619 z" id="path4-2" clip-path="url(#clipPath17)" transform="matrix(1.0566724,0,0,1.0566724,-154.25825,63.314893)" sodipodi:nodetypes="ssssssscsssssssssscssssssssssssssssssssssss"/>
          <path style="fill:url(#linearGradient3);stroke-width:0.264583;stroke-opacity:0" d="m -142.35209,204.27636 2.43274,-4.64432 13.19576,0.29487 -2.72761,4.12829 z" id="path11"/>
          <path style="fill:url(#linearGradient4);stroke-width:0.264583;stroke-opacity:0" d="m -145.66946,210.76366 9.73095,0.0737 -1.5481,4.12828 -10.54187,0.29488 z" id="path12"/>
          <path style="fill:url(#linearGradient5);stroke-width:0.264583;stroke-opacity:0" d="m -152.23048,222.26388 13.26948,0.14744 v 4.27572 l -15.40735,0.0737 z" id="path13"/>
          <path style="fill:url(#linearGradient6);stroke-width:0.264583;stroke-opacity:0" d="m -158.12803,233.46922 24.62226,0.14744 1.84299,4.12829 -1.03207,0.58975 -28.1608,-0.14744 z" id="path14"/>
          <path style="fill:url(#linearGradient7);stroke-width:0.264583;stroke-opacity:0" d="m -164.4679,245.11688 38.85011,-0.36859 1.47438,4.05456 -1.40067,0.44232 -41.504,-0.14744 z" id="path15"/>
          <path style="fill:url(#linearGradient8);stroke-width:0.264583;stroke-opacity:0" d="m -170.51289,256.17479 -2.80133,4.34944 55.14208,-0.14744 c 0,0 -3.02249,-4.64432 -2.13786,-4.71804 0.88463,-0.0737 -50.20289,0.51604 -50.20289,0.51604 z" id="path16"/>
          <path style="fill:url(#linearGradient9);stroke-width:0.287828;stroke-opacity:0" d="m 78.683495,93.010524 -3.489956,6.796228 H 63.621567 L 30.742491,163.36073 c 0,0 24.429701,-69.248112 27.184931,-69.799164 2.755241,-0.551042 20.756073,-0.551042 20.756073,-0.551042 z" id="path17" transform="matrix(0.88925891,0,0,0.88925891,-215.30976,116.51324)"/>
        </g>
      </g>
      <g id="g10" transform="translate(-40.087086,10.286029)" inkscape:label="Text">
        <path d="m 170.49493,139.8171 h -0.23565 q -0.98975,-0.23565 -1.93237,-0.32991 -0.91905,-0.11783 -2.19158,-0.11783 -2.0502,0 -3.959,0.91905 -1.9088,0.89549 -3.6762,2.33298 v 18.68739 h -4.43031 v -26.32259 h 4.43031 v 3.8883 q 2.63932,-2.12089 4.64239,-2.99281 2.02662,-0.89549 4.12395,-0.89549 1.1547,0 1.67314,0.0707 0.51844,0.0471 1.55532,0.21209 z m 23.77752,21.49168 h -4.40674 v -2.80429 q -0.58913,0.40061 -1.60245,1.13114 -0.98974,0.70696 -1.93236,1.13114 -1.10758,0.54201 -2.54507,0.89549 -1.43749,0.37705 -3.36985,0.37705 -3.55838,0 -6.03275,-2.35655 -2.47437,-2.35654 -2.47437,-6.00918 0,-2.99281 1.27253,-4.83092 1.2961,-1.86166 3.67621,-2.92211 2.40367,-1.06044 5.77353,-1.43749 3.36985,-0.37705 7.23458,-0.56557 v -0.6834 q 0,-1.50819 -0.542,-2.49793 -0.51844,-0.98975 -1.50819,-1.55532 -0.94262,-0.54201 -2.26228,-0.73053 -1.31966,-0.18852 -2.75715,-0.18852 -1.74385,0 -3.8883,0.4713 -2.14445,0.44775 -4.4303,1.31967 h -0.23566 v -4.501 q 1.2961,-0.35348 3.74691,-0.77766 2.4508,-0.42418 4.83091,-0.42418 2.78072,0 4.83091,0.47131 2.07376,0.44775 3.58195,1.55532 1.48462,1.08401 2.26228,2.80429 0.77766,1.72027 0.77766,4.26534 z m -4.40674,-6.4805 v -7.32885 q -2.02662,0.11783 -4.78378,0.35349 -2.73359,0.23565 -4.33604,0.68339 -1.9088,0.54201 -3.08707,1.69671 -1.17827,1.13115 -1.17827,3.13421 0,2.26228 1.36679,3.41698 1.3668,1.13114 4.17109,1.13114 2.33297,0 4.26534,-0.89548 1.93236,-0.91905 3.58194,-2.19159 z m 51.34908,6.4805 h -4.4303 v -14.98762 q 0,-1.69671 -0.16496,-3.27559 -0.14139,-1.57889 -0.63627,-2.5215 -0.542,-1.01332 -1.55532,-1.53176 -1.01331,-0.51844 -2.92211,-0.51844 -1.86167,0 -3.72334,0.94262 -1.86167,0.91905 -3.72334,2.35655 0.0707,0.542 0.11783,1.27253 0.0471,0.70696 0.0471,1.41392 v 16.84929 h -4.4303 v -14.98762 q 0,-1.74384 -0.16496,-3.29916 -0.14139,-1.57888 -0.63626,-2.5215 -0.54201,-1.01331 -1.55532,-1.50819 -1.01332,-0.51844 -2.92212,-0.51844 -1.81453,0 -3.65264,0.89549 -1.81454,0.89549 -3.62907,2.28585 v 19.65357 h -4.4303 v -26.32259 h 4.4303 v 2.92211 q 2.07375,-1.72027 4.12395,-2.68645 2.07375,-0.96619 4.40673,-0.96619 2.68646,0 4.54813,1.13114 1.88523,1.13114 2.80429,3.13421 2.68646,-2.26229 4.90161,-3.25203 2.21515,-1.01332 4.73665,-1.01332 4.33604,0 6.38623,2.63933 2.07376,2.61576 2.07376,7.32885 z m 27.33589,-7.58807 q 0,3.60551 -2.99281,5.91492 -2.96924,2.30941 -8.13007,2.30941 -2.92211,0 -5.37292,-0.68339 -2.42724,-0.70697 -4.07682,-1.53176 v -4.9723 h 0.23566 q 2.09732,1.57888 4.66595,2.5215 2.56863,0.91905 4.92518,0.91905 2.92211,0 4.57169,-0.94262 1.64958,-0.94261 1.64958,-2.96924 0,-1.55532 -0.89549,-2.35654 -0.89548,-0.80123 -3.44055,-1.3668 -0.94262,-0.21209 -2.47437,-0.49487 -1.50819,-0.28279 -2.75716,-0.6127 -3.46411,-0.91906 -4.92517,-2.68646 -1.43749,-1.79098 -1.43749,-4.38317 0,-1.62602 0.65983,-3.06351 0.6834,-1.43749 2.05019,-2.56863 1.31967,-1.10758 3.34629,-1.74384 2.0502,-0.65984 4.5717,-0.65984 2.35654,0 4.76021,0.58914 2.42724,0.56557 4.02969,1.39036 v 4.73665 h -0.23565 q -1.69671,-1.24897 -4.12395,-2.09732 -2.42724,-0.87192 -4.76022,-0.87192 -2.42724,0 -4.10038,0.94262 -1.67315,0.91905 -1.67315,2.75715 0,1.62602 1.01331,2.45081 0.98975,0.82479 3.2049,1.34322 1.22541,0.28279 2.73359,0.56558 1.53176,0.28278 2.54507,0.51843 3.08707,0.70697 4.76022,2.42724 1.67314,1.74385 1.67314,4.61883 z m 28.37278,-5.1137 h -19.39435 q 0,2.42724 0.73053,4.24178 0.73053,1.79097 2.00306,2.94568 1.22541,1.13114 2.89855,1.69671 1.69671,0.56557 3.72334,0.56557 2.68646,0 5.39648,-1.06045 2.73359,-1.08401 3.8883,-2.12089 h 0.23565 v 4.83092 q -2.23871,0.94261 -4.57169,1.57888 -2.33298,0.63627 -4.90161,0.63627 -6.55119,0 -10.2274,-3.53482 -3.6762,-3.55838 -3.6762,-10.086 0,-6.45693 3.51125,-10.25096 3.53481,-3.79404 9.28478,-3.79404 5.32578,0 8.20077,3.11064 2.89854,3.11064 2.89854,8.83704 z m -4.31247,-3.39342 q -0.0236,-3.48769 -1.76741,-5.39649 -1.72027,-1.9088 -5.25509,-1.9088 -3.55838,0 -5.67927,2.09733 -2.09732,2.09732 -2.38011,5.20796 z m 29.83384,8.50712 q 0,3.60551 -2.99281,5.91492 -2.96924,2.30941 -8.13007,2.30941 -2.92211,0 -5.37292,-0.68339 -2.42724,-0.70697 -4.07682,-1.53176 v -4.9723 h 0.23566 q 2.09732,1.57888 4.66595,2.5215 2.56863,0.91905 4.92518,0.91905 2.92211,0 4.57169,-0.94262 1.64958,-0.94261 1.64958,-2.96924 0,-1.55532 -0.89549,-2.35654 -0.89548,-0.80123 -3.44055,-1.3668 -0.94262,-0.21209 -2.47437,-0.49487 -1.50819,-0.28279 -2.75716,-0.6127 -3.46411,-0.91906 -4.92517,-2.68646 -1.43749,-1.79098 -1.43749,-4.38317 0,-1.62602 0.65983,-3.06351 0.6834,-1.43749 2.05019,-2.56863 1.31967,-1.10758 3.34629,-1.74384 2.0502,-0.65984 4.5717,-0.65984 2.35654,0 4.76021,0.58914 2.42724,0.56557 4.02969,1.39036 v 4.73665 h -0.23565 q -1.69671,-1.24897 -4.12395,-2.09732 -2.42724,-0.87192 -4.76022,-0.87192 -2.42724,0 -4.10038,0.94262 -1.67315,0.91905 -1.67315,2.75715 0,1.62602 1.01331,2.45081 0.98975,0.82479 3.2049,1.34322 1.22541,0.28279 2.73359,0.56558 1.53176,0.28278 2.54507,0.51843 3.08707,0.70697 4.76022,2.42724 1.67314,1.74385 1.67314,4.61883 z" id="text9" style="font-size:48.262px;stroke-width:36.0924;stroke-linejoin:bevel;paint-order:fill markers stroke" inkscape:label="text ramses" aria-label="ramses"/>
        <path d="m 159.51871,116.149 h -3.96779 v 9.79268 h -1.47673 V 116.149 h -3.96779 v -1.31266 h 9.41231 z m 8.34579,9.79268 h -1.40215 v -4.74345 q 0,-0.57428 -0.0671,-1.07399 -0.0671,-0.50716 -0.24612,-0.79057 -0.18646,-0.31325 -0.537,-0.46241 -0.35053,-0.15663 -0.9099,-0.15663 -0.57429,0 -1.20078,0.28342 -0.62649,0.28341 -1.20078,0.72345 v 6.22018 h -1.40215 v -11.60504 h 1.40215 v 4.199 q 0.65633,-0.54446 1.3574,-0.85024 0.70108,-0.30579 1.43945,-0.30579 1.34994,0 2.05847,0.81295 0.70854,0.81295 0.70854,2.34189 z m 9.67335,-4.02 h -6.13814 q 0,0.7682 0.23121,1.34249 0.2312,0.56683 0.63395,0.93228 0.38783,0.358 0.91736,0.53699 0.537,0.179 1.17841,0.179 0.85024,0 1.70793,-0.33562 0.86516,-0.34308 1.23062,-0.67124 h 0.0746 v 1.52894 q -0.70853,0.29833 -1.4469,0.4997 -0.73837,0.20138 -1.55132,0.20138 -2.07339,0 -3.23688,-1.11874 -1.16349,-1.1262 -1.16349,-3.19213 0,-2.04357 1.11128,-3.24434 1.11874,-1.20078 2.93855,-1.20078 1.68557,0 2.59548,0.98449 0.91736,0.98449 0.91736,2.79684 z m -1.36486,-1.07399 q -0.007,-1.10382 -0.55937,-1.70793 -0.54445,-0.60412 -1.66319,-0.60412 -1.12619,0 -1.79744,0.66378 -0.66378,0.66379 -0.75328,1.64827 z" id="text9-2" style="font-size:15.2745px;stroke-width:36.0924;stroke-linejoin:bevel;paint-order:fill markers stroke" inkscape:label="text the" aria-label="The"/>
        <path d="m 276.02405,173.61623 q 0,0.73837 -0.26103,1.37232 -0.25359,0.62649 -0.716,1.08891 -0.57428,0.57428 -1.3574,0.86515 -0.78312,0.28342 -1.97644,0.28342 h -1.47673 v 4.13933 h -1.47673 v -11.10534 h 3.01313 q 0.99941,0 1.69302,0.17154 0.69362,0.16408 1.23062,0.52208 0.63395,0.42512 0.97703,1.05907 0.35053,0.63395 0.35053,1.60352 z m -1.5364,0.0373 q 0,-0.57428 -0.20137,-0.9994 -0.20137,-0.42512 -0.61158,-0.69362 -0.35799,-0.23121 -0.8204,-0.32816 -0.45496,-0.10442 -1.15603,-0.10442 h -1.46182 v 4.43766 h 1.24553 q 0.89499,0 1.45436,-0.15662 0.55937,-0.16408 0.9099,-0.51462 0.35054,-0.358 0.49225,-0.75328 0.14916,-0.39529 0.14916,-0.88754 z m 8.56954,0.90991 h -0.0746 q -0.31324,-0.0746 -0.61157,-0.10441 -0.29088,-0.0373 -0.69362,-0.0373 -0.64887,0 -1.25299,0.29088 -0.60412,0.28341 -1.16348,0.73836 v 5.9144 h -1.40216 v -8.33087 h 1.40216 v 1.23061 q 0.83532,-0.67124 1.46927,-0.9472 0.64141,-0.28341 1.3052,-0.28341 0.36545,0 0.52953,0.0224 0.16408,0.0149 0.49225,0.0671 z m 8.42036,2.64022 q 0,2.0361 -1.04415,3.21451 -1.04416,1.1784 -2.79685,1.1784 -1.7676,0 -2.81176,-1.1784 -1.03669,-1.17841 -1.03669,-3.21451 0,-2.0361 1.03669,-3.2145 1.04416,-1.18587 2.81176,-1.18587 1.75269,0 2.79685,1.18587 1.04415,1.1784 1.04415,3.2145 z m -1.4469,0 q 0,-1.61844 -0.63395,-2.40156 -0.63395,-0.79057 -1.76015,-0.79057 -1.14111,0 -1.77506,0.79057 -0.62649,0.78312 -0.62649,2.40156 0,1.56623 0.63395,2.37918 0.63395,0.8055 1.7676,0.8055 1.11874,0 1.75269,-0.79804 0.64141,-0.80549 0.64141,-2.38664 z m 6.21273,-5.56385 h -1.58115 v -1.45436 h 1.58115 z m -0.0895,9.92693 q 0,1.46182 -0.74583,2.20764 -0.74582,0.74583 -1.99881,0.74583 -0.29833,0 -0.79057,-0.0597 -0.48479,-0.0597 -0.81295,-0.14916 v -1.33503 h 0.0746 q 0.20883,0.082 0.55937,0.18646 0.35799,0.10441 0.69361,0.10441 0.537,0 0.86516,-0.14916 0.32816,-0.14917 0.49225,-0.4475 0.16408,-0.29833 0.20883,-0.72345 0.0522,-0.41766 0.0522,-1.02178 v -6.71243 h -1.73778 v -1.1784 h 3.13993 z m 9.72556,-4.22137 h -6.13814 q 0,0.7682 0.2312,1.34248 0.23121,0.56683 0.63395,0.93229 0.38783,0.35799 0.91737,0.53699 0.53699,0.179 1.1784,0.179 0.85024,0 1.70794,-0.33562 0.86516,-0.34308 1.23061,-0.67125 h 0.0746 v 1.52895 q -0.70854,0.29833 -1.4469,0.4997 -0.73837,0.20137 -1.55132,0.20137 -2.0734,0 -3.23688,-1.11874 -1.16349,-1.12619 -1.16349,-3.19213 0,-2.04356 1.11128,-3.24434 1.11874,-1.20078 2.93855,-1.20078 1.68557,0 2.59547,0.98449 0.91737,0.98449 0.91737,2.79685 z m -1.36486,-1.07399 q -0.007,-1.10382 -0.55937,-1.70794 -0.54445,-0.60412 -1.66319,-0.60412 -1.1262,0 -1.79744,0.66379 -0.66378,0.66378 -0.75328,1.64827 z m 9.65098,4.57191 q -0.70108,0.33562 -1.33503,0.52208 -0.62649,0.18645 -1.33503,0.18645 -0.90245,0 -1.65573,-0.26104 -0.75328,-0.26849 -1.29028,-0.80549 -0.54445,-0.53699 -0.84278,-1.3574 -0.29833,-0.82041 -0.29833,-1.91677 0,-2.04356 1.11874,-3.20705 1.12619,-1.16349 2.96838,-1.16349 0.71599,0 1.40215,0.20138 0.69362,0.20137 1.26791,0.49224 v 1.55878 h -0.0746 q -0.64141,-0.49971 -1.32757,-0.7682 -0.6787,-0.2685 -1.32756,-0.2685 -1.19332,0 -1.88694,0.80549 -0.68616,0.79803 -0.68616,2.34935 0,1.50657 0.67124,2.31952 0.6787,0.80549 1.90186,0.80549 0.42512,0 0.86515,-0.11188 0.44004,-0.11187 0.79058,-0.29087 0.30579,-0.15662 0.57428,-0.32816 0.2685,-0.179 0.42512,-0.30579 h 0.0746 z m 6.12322,0.44749 q -0.39529,0.10442 -0.86516,0.17154 -0.46241,0.0671 -0.82786,0.0671 -1.27536,0 -1.93915,-0.68616 -0.66378,-0.68616 -0.66378,-2.20019 v -4.4302 h -0.9472 v -1.1784 h 0.9472 v -2.3941 h 1.40215 v 2.3941 h 2.8938 v 1.1784 h -2.8938 v 3.79625 q 0,0.65633 0.0298,1.02924 0.0298,0.36546 0.20883,0.68616 0.16408,0.29833 0.4475,0.44004 0.29087,0.13425 0.88007,0.13425 0.34308,0 0.71599,-0.097 0.37292,-0.10442 0.537,-0.17154 h 0.0746 z" id="text9-2-1" style="font-size:15.2745px;stroke-width:36.0924;stroke-linejoin:bevel;paint-order:fill markers stroke" inkscape:label="text project" aria-label="Project"/>
      </g>
    </g>
  </g>
</svg>