<?xml version="1.0" encoding="UTF-8"?><svg xmlns="http://www.w3.org/2000/svg" viewBox="0 0 194.44 111.41"><g id="Light"><g><path d="M17.64,79.39c7.4,0,12.5,2.6,12.5,10.7,0,3.4-1.7,6.6-4.5,8.6l5.5,11.3h-7.9c-1.5-3.1-2.9-6.3-4.4-9.4h-4.8v9.4H7.04v-30.6s10.6,0,10.6,0Zm-3.6,15.2h4.2c2.5,.2,4.6-1.7,4.8-4.2v-.6c0-2.1-1.2-4.5-4.8-4.5h-4.2v9.3Z" style="fill:#313333;"/><path d="M41.34,98.29v-18.9h7v19.5c-.1,3,2.3,5.6,5.4,5.7h.5c3,.2,5.6-2.2,5.8-5.2v-20h7v18.9c0,7.8-3.9,12.2-12.8,12.2s-12.9-4.4-12.9-12.2Z" style="fill:#313333;"/><path d="M102.24,87.49c0,2.7-1.5,5.2-3.9,6.6v.2c3.9,1.3,5,3.9,5,7,0,5.3-4.1,8.8-10.5,8.8h-13.3v-30.6h12.9c6.8-.1,9.8,3.7,9.8,8Zm-11,4.2c2.1,0,4.1-.8,4.1-3.4,0-2-1.6-2.9-3.9-2.9h-4.8v6.4h4.6v-.1Zm5,9c0-2.3-1.6-3.1-4-3.1h-5.6v6.4h5.8c2.7,0,3.8-1.3,3.8-3.3h0Z" style="fill:#313333;"/><path d="M114.74,79.39h7v30.6h-7v-30.6Z" style="fill:#313333;"/><path d="M141.54,90.99v19h-7v-30.6h7.5l12.4,19.6v-19.6h6.9v30.6h-7.4l-12.4-19Z" style="fill:#313333;"/><path d="M36.04,41.89c-2.5,0-4.4,2-4.4,4.4s2,4.4,4.4,4.4,4.4-2,4.4-4.4h0c.1-2.4-1.9-4.4-4.4-4.4Z" style="fill:#00babc;"/><path d="M27.54,25.69c2.4,0,4.3-1.9,4.3-4.3s-1.9-4.3-4.3-4.3-4.3,1.9-4.3,4.3h0c0,2.4,1.9,4.3,4.3,4.3h0Z" style="fill:#00babc;"/><path d="M45.44,27.09c-2.3,0-4.1,1.8-4.1,4.1s1.8,4.1,4.1,4.1,4.1-1.8,4.1-4.1-1.9-4.1-4.1-4.1h0Z" style="fill:#00babc;"/><path d="M23.44,59.09c-.1,0-.1-.1,0,0l-2.5-7.3c0-.1-.1-.1-.2-.1,0,0-.1,0-.1,.1l-2.5,7.2s0,.1-.1,.1l-7.2,2.5c-.1,0-.1,.1-.1,.2l.1,.1,7.2,2.7,.1,.1,2.5,7c0,.1,.1,.1,.2,.1,0,0,.1,0,.1-.1l2.5-7.2s0-.1,.1-.1l7.3-2.4c.1,0,.1-.1,.1-.2l-.1-.1-7.4-2.6Z" style="fill:#00babc;"/><path d="M38.54,16.19c14.7-6.9,30.7-10.7,46.9-11h.1c1-.1,1.8-.9,1.8-2-.1-1-.9-1.8-2-1.8-16.6,1-32.8,5.4-47.6,13.1-.4,.2-.6,.8-.4,1.2,.2,.5,.7,.7,1.2,.5h0Z" style="fill:#00babc;"/><path d="M157.94,53.89c2.5,.1,4.6-1.9,4.6-4.3,.1-2.5-1.9-4.6-4.3-4.6-.6,0-1.3,.1-1.8,.3-3.1-2.7-6.3-5.2-9.7-7.5l-.1-.1-.2-.1-.2-.1h-.9l-17.8,3c-11.3-5.2-23.6-8-36-8.2-1.1,0-1.9,.8-1.9,1.9s.8,1.9,1.9,2h0c3,0,6,.2,9,.6,8.9,1.1,17.7,3.6,25.8,7.4,.1,.1,.3,.2,.5,.2,10.2,4.8,19.3,11.6,26.8,20-.2,.5-.4,1.1-.4,1.7,0,2.5,1.9,4.5,4.4,4.6,2.5,0,4.5-1.9,4.6-4.4,0-2.5-1.9-4.5-4.4-4.6-.4,0-.9,0-1.3,.2-6.6-7.4-14.4-13.6-23.1-18.4l11.8-2c3,2.1,5.9,4.3,8.7,6.7-.1,.4-.2,.7-.2,1.1-.2,2.4,1.7,4.5,4.2,4.6Z" style="fill:#00babc;"/><path d="M127.04,54.99c-.9,0-1.7,.2-2.4,.7-16.9-9.2-36.8-11.3-55.3-5.9-6.5,1.9-12.7,4.6-18.4,8.2-.5,.3-.6,.9-.3,1.3,.3,.5,.9,.6,1.4,.3,21.7-12.9,48.6-13.3,70.6-.9,0,.2-.1,.4-.1,.6-.1,2.5,1.9,4.5,4.4,4.6s4.5-1.9,4.6-4.4c0-2.4-2-4.4-4.5-4.5Z" style="fill:#00babc;"/><path d="M76.34,20.99c-2.3,.5-4.6,1-6.9,1.6s-4.5,1.3-6.7,2.1-4.4,1.6-6.6,2.6c-.4,.3-.5,1-.1,1.4,.2,.3,.5,.4,.9,.4h0c2.2-.8,4.3-1.6,6.5-2.3s4.4-1.3,6.7-1.8,4.5-1,6.7-1.4,4.5-.7,6.8-.9c4.6-.4,9.1-.6,13.7-.4,3.2,.1,6.4,.4,9.6,.9,.7,2.4,3.2,3.7,5.6,3,2.4-.7,3.7-3.2,3-5.6s-3.2-3.7-5.6-3c-1,.3-1.9,1-2.5,1.9-3.3-.4-6.7-.5-10-.5-4.7,0-9.4,.3-14.1,.9-2.4,.2-4.7,.6-7,1.1Z" style="fill:#00babc;"/><path d="M106.54,5.69c5.8,.8,11.6,2.1,17.3,3.7l3.4,12.6h0c.1,.2,.1,.3,.2,.5h0c.1,.1,.2,.3,.4,.4l.1,.1c.1,.1,.3,.2,.4,.2,2.6,1,5.2,2.1,7.7,3.4h0c-.1,2.5,1.8,4.6,4.3,4.7s4.6-1.8,4.7-4.3c.1-2.5-1.8-4.6-4.3-4.7h0c-1.1,0-2.1,.3-2.9,1-2.4-1.1-4.7-2.2-7.1-3.2l-2.5-9.4c9.3,3.2,18.2,7.5,26.4,12.9,0,.2-.1,.4-.1,.6-.1,2.5,1.9,4.5,4.4,4.6s4.5-1.9,4.6-4.4-1.9-4.5-4.3-4.6c-.9,0-1.7,.2-2.5,.7-14.9-9.7-31.8-16.1-49.4-18.6-1-.1-2,.6-2.1,1.6-.4,1.1,.3,2.1,1.3,2.2Z" style="fill:#00babc;"/><path d="M12.84,46.69l2.4-9c0-.1,.1-.1,.2-.2l9-2.4c.1,0,.2-.2,.2-.3s-.1-.1-.2-.2l-9-2.4c-.1,0-.1-.1-.2-.2l-2.4-9c0-.1-.2-.2-.3-.2s-.1,.1-.2,.2l-2.4,9c0,.1-.1,.1-.2,.2L.74,34.59c-.1,0-.2,.2-.2,.3s.1,.1,.2,.2l9,2.4c.1,0,.1,.1,.2,.2l2.4,9c0,.1,.2,.2,.3,.2,.1-.1,.2-.2,.2-.2Z" style="fill:#00babc;"/></g></g><g id="Bar"><line x1="189.83" y1="1.22" x2="189.83" y2="110.05" style="fill:none; stroke:#00babc; stroke-linecap:round; stroke-miterlimit:10; stroke-width:2px;"/></g></svg>